<svg width="26" height="26" viewBox="0 0 26 26" fill="none" xmlns="http://www.w3.org/2000/svg">
<g clip-path="url(#clip0_102_1788)" filter="url(#filter0_d_102_1788)">
<path d="M9.25 0H7C6.20435 0 5.44129 0.316071 4.87868 0.87868C4.31607 1.44129 4 2.20435 4 3L4 5.25C4 6.04565 4.31607 6.80871 4.87868 7.37132C5.44129 7.93393 6.20435 8.25 7 8.25H9.25C10.0456 8.25 10.8087 7.93393 11.3713 7.37132C11.9339 6.80871 12.25 6.04565 12.25 5.25V3C12.25 2.20435 11.9339 1.44129 11.3713 0.87868C10.8087 0.316071 10.0456 0 9.25 0V0ZM10.75 5.25C10.75 5.64782 10.592 6.02936 10.3107 6.31066C10.0294 6.59196 9.64782 6.75 9.25 6.75H7C6.60218 6.75 6.22064 6.59196 5.93934 6.31066C5.65804 6.02936 5.5 5.64782 5.5 5.25V3C5.5 2.60218 5.65804 2.22064 5.93934 1.93934C6.22064 1.65804 6.60218 1.5 7 1.5H9.25C9.64782 1.5 10.0294 1.65804 10.3107 1.93934C10.592 2.22064 10.75 2.60218 10.75 3V5.25Z" fill="white"/>
<path d="M19 0H16.75C15.9543 0 15.1913 0.316071 14.6287 0.87868C14.0661 1.44129 13.75 2.20435 13.75 3V5.25C13.75 6.04565 14.0661 6.80872 14.6287 7.37133C15.1913 7.93394 15.9543 8.25001 16.75 8.25001H19C19.7956 8.25001 20.5587 7.93394 21.1213 7.37133C21.6839 6.80872 22 6.04565 22 5.25V3C22 2.20435 21.6839 1.44129 21.1213 0.87868C20.5587 0.316071 19.7956 0 19 0V0ZM20.5 5.25C20.5 5.64783 20.342 6.02936 20.0607 6.31066C19.7793 6.59197 19.3978 6.75 19 6.75H16.75C16.3522 6.75 15.9706 6.59197 15.6893 6.31066C15.408 6.02936 15.25 5.64783 15.25 5.25V3C15.25 2.60218 15.408 2.22065 15.6893 1.93934C15.9706 1.65804 16.3522 1.5 16.75 1.5H19C19.3978 1.5 19.7793 1.65804 20.0607 1.93934C20.342 2.22065 20.5 2.60218 20.5 3V5.25Z" fill="white"/>
<path d="M9.25 9.75H7C6.20435 9.75 5.44129 10.0661 4.87868 10.6287C4.31607 11.1913 4 11.9544 4 12.75L4 15C4 15.7957 4.31607 16.5587 4.87868 17.1213C5.44129 17.6839 6.20435 18 7 18H9.25C10.0456 18 10.8087 17.6839 11.3713 17.1213C11.9339 16.5587 12.25 15.7957 12.25 15V12.75C12.25 11.9544 11.9339 11.1913 11.3713 10.6287C10.8087 10.0661 10.0456 9.75 9.25 9.75ZM10.75 15C10.75 15.3978 10.592 15.7794 10.3107 16.0607C10.0294 16.342 9.64782 16.5 9.25 16.5H7C6.60218 16.5 6.22064 16.342 5.93934 16.0607C5.65804 15.7794 5.5 15.3978 5.5 15V12.75C5.5 12.3522 5.65804 11.9706 5.93934 11.6893C6.22064 11.408 6.60218 11.25 7 11.25H9.25C9.64782 11.25 10.0294 11.408 10.3107 11.6893C10.592 11.9706 10.75 12.3522 10.75 12.75V15Z" fill="white"/>
<path d="M19 9.75H16.75C15.9543 9.75 15.1913 10.0661 14.6287 10.6287C14.0661 11.1913 13.75 11.9544 13.75 12.75V15C13.75 15.7957 14.0661 16.5587 14.6287 17.1213C15.1913 17.6839 15.9543 18 16.75 18H19C19.7956 18 20.5587 17.6839 21.1213 17.1213C21.6839 16.5587 22 15.7957 22 15V12.75C22 11.9544 21.6839 11.1913 21.1213 10.6287C20.5587 10.0661 19.7956 9.75 19 9.75ZM20.5 15C20.5 15.3978 20.342 15.7794 20.0607 16.0607C19.7793 16.342 19.3978 16.5 19 16.5H16.75C16.3522 16.5 15.9706 16.342 15.6893 16.0607C15.408 15.7794 15.25 15.3978 15.25 15V12.75C15.25 12.3522 15.408 11.9706 15.6893 11.6893C15.9706 11.408 16.3522 11.25 16.75 11.25H19C19.3978 11.25 19.7793 11.408 20.0607 11.6893C20.342 11.9706 20.5 12.3522 20.5 12.75V15Z" fill="white"/>
</g>
<defs>
<filter id="filter0_d_102_1788" x="0" y="0" width="26" height="26" filterUnits="userSpaceOnUse" color-interpolation-filters="sRGB">
<feFlood flood-opacity="0" result="BackgroundImageFix"/>
<feColorMatrix in="SourceAlpha" type="matrix" values="0 0 0 0 0 0 0 0 0 0 0 0 0 0 0 0 0 0 127 0" result="hardAlpha"/>
<feOffset dy="4"/>
<feGaussianBlur stdDeviation="2"/>
<feComposite in2="hardAlpha" operator="out"/>
<feColorMatrix type="matrix" values="0 0 0 0 0 0 0 0 0 0 0 0 0 0 0 0 0 0 0.25 0"/>
<feBlend mode="normal" in2="BackgroundImageFix" result="effect1_dropShadow_102_1788"/>
<feBlend mode="normal" in="SourceGraphic" in2="effect1_dropShadow_102_1788" result="shape"/>
</filter>
<clipPath id="clip0_102_1788">
<rect width="18" height="18" fill="white" transform="translate(4)"/>
</clipPath>
</defs>
</svg>
